#!OML:ASF Y:\EmotionMaleHayes\Project 1\Capture day 1\Session 1\Male1.ASF
:FULLY-SPECIFIED
:DEGREES
490
root 20.8409 16.9289 0.45516 659.447 81.7436 663.301
lowerback 9.44095 3.48151 7.48909
upperback 2.62384 5.46411 1.24827
thorax -1.96565 2.75924 -3.46106
lowerneck -22.6391 -0.296172 1.54147
upperneck 22.3181 -0.849681 0.0143869
head 10.9543 -0.202865 -0.375738
rclavicle -6.90777e-015 3.27995e-014
rhumerus -13.7564 10.9623 -82.5304
rradius 42.5398
rwrist -3.36663
rhand -12.1934 -32.9666
rfingers 7.12502
rthumb 13.8706 -62.484
lclavicle -6.90777e-015 3.27995e-014
lhumerus -45.4916 5.52383 76.7145
lradius 19.2262
lwrist -26.0825
lhand -8.59359 -25.7461
lfingers 7.12502
lthumb 17.3376 3.5006
rfemur 16.1492 -4.34823 26.3361
rtibia 5.58627
rfoot -18.5919 6.22531
rtoes 12.8211
lfemur -22.2796 10.6444 -7.62287
ltibia 31.7413
lfoot -9.11244 6.46364
ltoes 1.47063
491
root 21.001 16.8999 0.446212 658.661 81.4701 662.238
lowerback 9.15514 3.52766 7.82787
upperback 2.55776 5.53031 1.22621
thorax -1.83417 2.79469 -3.65494
lowerneck -22.6356 -0.321225 1.65455
upperneck 22.2533 -0.912944 -0.0331272
head 10.9282 -0.22905 -0.421595
rclavicle -2.3382e-014 -2.00773e-014
rhumerus -13.3368 11.0821 -82.3751
rradius 43.1709
rwrist -3.51912
rhand -12.0942 -32.9434
rfingers 7.12502
rthumb 13.9663 -62.4543
lclavicle -2.3382e-014 -2.00773e-014
lhumerus -45.7407 5.55285 76.4508
lradius 19.4095
lwrist -25.6632
lhand -8.98397 -25.9415
lfingers 7.12502
lthumb 16.9619 3.33788
rfemur 16.5681 -4.7016 26.4225
rtibia 5.41722
rfoot -18.8993 6.71616
rtoes 13.2634
lfemur -22.2839 10.2582 -7.15444
ltibia 28.1118
lfoot -8.80504 6.90141
ltoes 1.19643
492
root 21.1562 16.869 0.43624 658.554 81.1758 661.815
lowerback 8.93865 3.59871 8.08352
upperback 2.41699 5.62977 1.21545
thorax -1.82347 2.83881 -3.803
lowerneck -22.4721 -0.391374 1.45108
upperneck 22.1019 -1.01525 0.262492
head 10.8439 -0.256821 -0.295725
rclavicle -1.59028e-014 6.16232e-015
rhumerus -13.215 11.267 -82.2344
rradius 43.939
rwrist -3.7498
rhand -11.7621 -33.1025
rfingers 7.12502
rthumb 14.2863 -62.591
lclavicle -1.59028e-014 6.16232e-015
lhumerus -46.0622 5.97189 75.9377
lradius 19.5327
lwrist -25.8364
lhand -9.16068 -25.9642
lfingers 7.12502
lthumb 16.7918 3.32972
rfemur 16.9019 -4.97612 26.4781
rtibia 5.28772
rfoot -19.1674 7.16239
rtoes 13.3655
lfemur -22.2711 9.72472 -6.65971
ltibia 24.404
lfoot -8.53428 7.53718
ltoes 1.13231
493
root 21.3123 16.8419 0.427341 658.42 80.8042 661.383
lowerback 8.80769 3.65061 8.36732
upperback 2.26911 5.71658 1.23658
thorax -1.86887 2.87404 -3.93954
lowerneck -22.4863 -0.471042 1.21867
upperneck 22.0793 -1.13073 0.579795
head 10.8414 -0.288528 -0.16034
rclavicle 1.88597e-014 5.76476e-015
rhumerus -13.0299 11.581 -82.0947
rradius 44.6053
rwrist -4.15711
rhand -11.7639 -33.2198
rfingers 7.12502
rthumb 14.2845 -62.7085
lclavicle 1.88597e-014 5.76476e-015
lhumerus -46.4679 6.2507 75.5649
lradius 19.8032
lwrist -25.7388
lhand -9.12855 -25.4884
lfingers 7.12502
lthumb 16.8227 3.80282
rfemur 17.2332 -5.07086 26.692
rtibia 5.21335
rfoot -19.4778 7.42031
rtoes 13.2945
lfemur -22.1606 8.93105 -5.95679
ltibia 20.7293
lfoot -8.57464 8.37196
ltoes 2.23085
494
root 21.4799 16.8129 0.415435 657.248 80.4625 659.951
lowerback 8.53844 3.63797 8.72865
upperback 2.21408 5.70849 1.30424
thorax -1.74938 2.87308 -4.04645
lowerneck -22.8716 -0.53393 1.32805
upperneck 22.3002 -1.21266 0.372919
head 10.9925 -0.340243 -0.268334
rclavicle -6.73383e-015 9.54166e-015
rhumerus -12.5799 11.9376 -81.9064
rradius 44.9679
rwrist -4.545
rhand -12.2188 -32.9713
rfingers 7.12502
rthumb 13.8461 -62.4905
lclavicle -6.73383e-015 9.54166e-015
lhumerus -46.6842 6.7388 75.1631
lradius 19.8404
lwrist -25.7479
lhand -9.14831 -25.17
lfingers 7.12502
lthumb 16.8037 4.12289
rfemur 17.6229 -5.35607 26.9247
rtibia 5.18619
rfoot -19.8406 7.67908
rtoes 13.1306
lfemur -21.9852 7.89777 -5.19829
ltibia 17.2698
lfoot -8.68539 9.1145
ltoes 2.73335
495
root 21.6438 16.7774 0.406037 658.661 79.6601 661.062
lowerback 8.23519 3.85408 9.23576
upperback 2.16153 6.01158 1.41028
thorax -1.55506 3.03086 -4.20934
lowerneck -22.7587 -0.495441 1.35733
upperneck 22.0438 -1.16469 0.357424
head 10.8761 -0.322729 -0.270466
rclavicle -7.49418e-014 -3.02153e-014
rhumerus -12.1886 12.0129 -81.754
rradius 45.2905
rwrist -4.53467
rhand -12.3502 -32.7881
rfingers 7.12502
rthumb 13.7195 -62.3159
lclavicle -7.49418e-014 -3.02153e-014
lhumerus -46.6547 7.38273 74.6266
lradius 19.5362
lwrist -26.0194
lhand -9.35859 -25.3797
lfingers 7.12502
lthumb 16.6012 3.93027
rfemur 17.697 -5.05766 27.5623
rtibia 5.49517
rfoot -20.2687 7.88813
rtoes 13.1717
lfemur -21.6737 7.22878 -3.95183
ltibia 13.9096
lfoot -8.66372 10.0818
ltoes 2.25635
496
root 21.8144 16.7545 0.395589 656.684 79.503 659.091
lowerback 8.09251 3.81556 9.5378
upperback 2.22499 5.96856 1.43953
thorax -1.38696 3.02086 -4.3246
lowerneck -22.6539 -0.555426 1.23176
upperneck 21.7782 -1.25374 0.544006
head 10.7605 -0.35458 -0.195399
rclavicle -9.06955e-015 -2.52457e-014
rhumerus -11.9295 11.8942 -81.616
rradius 45.7413
rwrist -4.53134
rhand -12.0631 -32.6657
rfingers 7.12502
rthumb 13.9962 -62.1745
lclavicle -9.06955e-015 -2.52457e-014
lhumerus -46.7074 7.76157 74.2639
lradius 19.5598
lwrist -26.1508
lhand -9.41241 -25.4761
lfingers 7.12502
lthumb 16.5494 3.8382
rfemur 18.3815 -4.72443 28.059
rtibia 5.3984
rfoot -20.8946 7.23886
rtoes 12.8591
lfemur -21.254 5.83495 -3.17509
ltibia 10.8019
lfoot -8.84301 10.7673
ltoes 3.15783
497
root 21.9763 16.7198 0.38444 658.296 79.2441 660.334
lowerback 7.75049 3.97208 9.46531
upperback 2.18839 6.13141 1.4672
thorax -1.22327 3.10734 -4.23668
lowerneck -22.788 -0.583368 1.03551
upperneck 21.6053 -1.28168 0.739349
head 10.7245 -0.362446 -0.0972989
rclavicle -9.15155e-014 2.54444e-014
rhumerus -11.5961 12.013 -81.4034
rradius 46.1375
rwrist -4.85556
rhand -11.955 -32.0904
rfingers 7.12502
rthumb 14.1004 -61.592
lclavicle -9.15155e-014 2.54444e-014
lhumerus -46.8885 8.4499 73.8571
lradius 19.8429
lwrist -26.4163
lhand -9.14544 -25.3154
lfingers 7.12502
lthumb 16.8064 3.97723
rfemur 18.3712 -4.3647 28.1868
rtibia 5.87614
rfoot -21.4483 7.2318
rtoes 12.0341
lfemur -21.2691 5.03727 -2.60726
ltibia 8.23797
lfoot -9.55019 11.5071
ltoes 3.87456
498
root 22.1399 16.6846 0.37461 658.409 78.8009 660.214
lowerback 7.58198 4.03403 9.65829
upperback 2.18059 6.21372 1.57831
thorax -1.1182 3.15371 -4.21572
lowerneck -22.9324 -0.490013 0.931645
upperneck 21.3948 -1.15577 0.871797
head 10.6756 -0.301017 -0.0133051
rclavicle 9.81499e-015 -1.78906e-014
rhumerus -11.2071 12.14 -81.2381
rradius 46.3682
rwrist -4.93527
rhand -12.0627 -31.8444
rfingers 7.12502
rthumb 13.9966 -61.3532
lclavicle 9.81499e-015 -1.78906e-014
lhumerus -46.829 9.28907 73.3581
lradius 19.735
lwrist -26.7698
lhand -9.05063 -25.3257
lfingers 7.12502
lthumb 16.8977 3.9592
rfemur 18.5166 -3.98348 28.7203
rtibia 6.37718
rfoot -21.843 6.92147
rtoes 10.7043
lfemur -21.3111 4.48915 -1.76671
ltibia 6.25352
lfoot -9.36853 11.8543
ltoes 2.12735
499
root 22.3193 16.6554 0.352162 651.674 79.0299 653.61
lowerback 7.57883 3.58829 10.1588
upperback 2.19236 5.66343 1.59298
thorax -1.13353 2.88215 -4.44436
lowerneck -23.1794 -0.597046 1.03941
upperneck 21.5668 -1.31471 0.738872
head 10.7826 -0.378803 -0.10495
rclavicle 8.44835e-015 5.40694e-014
rhumerus -11.2068 12.1037 -81.2966
rradius 46.6708
rwrist -4.70722
rhand -12.3502 -32.2479
rfingers 7.12502
rthumb 13.7195 -61.7757
lclavicle 8.44835e-015 5.40694e-014
lhumerus -46.7769 9.74144 72.8957
lradius 19.449
lwrist -27.1044
lhand -8.98002 -25.2949
lfingers 7.12502
lthumb 16.9657 3.98411
rfemur 19.5857 -4.23441 29.2719
rtibia 6.02314
rfoot -22.3321 5.63964
rtoes 8.95446
lfemur -21.5886 3.41183 -1.52189
ltibia 4.99511
lfoot -9.42266 11.029
ltoes 2.28204
500
root 22.4645 16.5955 0.360283 660.672 77.5681 661.81
lowerback 7.26069 4.37197 10.1302
upperback 1.79646 6.68042 1.65922
thorax -1.23186 3.36467 -4.40071
lowerneck -22.9027 -0.627284 1.14105
upperneck 21.3799 -1.39881 0.788687
head 10.6625 -0.40497 -0.115671
rclavicle 2.78795e-014 4.17448e-014
rhumerus -11.495 12.2282 -81.4769
rradius 47.1851
rwrist -4.67129
rhand -12.7697 -32.5905
rfingers 7.12502
rthumb 13.3152 -62.1452
lclavicle 2.78795e-014 4.17448e-014
lhumerus -46.9503 10.2065 72.3326
lradius 19.3153
lwrist -27.5865
lhand -8.63059 -24.939
lfingers 7.12502
lthumb 17.302 4.31088
rfemur 18.7146 -2.74305 30.0626
rtibia 7.09271
rfoot -22.8213 6.25251
rtoes 8.76982
lfemur -21.7297 4.86671 -0.0109262
ltibia 3.78763
lfoot -10.0778 11.4781
ltoes 4.74642
501
root 22.6516 16.5713 0.332775 657.791 77.9179 659.295
lowerback 7.3849 4.07503 10.1917
upperback 1.94287 6.299 1.62665
thorax -1.19302 3.18368 -4.45417
lowerneck -22.9179 -0.581689 1.09843
upperneck 21.2729 -1.35009 0.898916
head 10.6276 -0.374165 -0.0613643
rclavicle 6.39093e-014 4.53229e-014
rhumerus -11.5536 12.4807 -81.4982
rradius 47.6611
rwrist -4.83253
rhand -13.003 -32.5782
rfingers 7.12502
rthumb 13.0903 -62.1474
lclavicle 6.39093e-014 4.53229e-014
lhumerus -47.0306 11.0052 71.7749
lradius 19.1473
lwrist -28.2018
lhand -8.66854 -25.0227
lfingers 7.12502
lthumb 17.2655 4.23033
rfemur 19.8616 -2.77664 30.0169
rtibia 7.02881
rfoot -23.3964 5.79914
rtoes 9.37836
lfemur -21.425 4.67409 -0.414458
ltibia 3.14434
lfoot -9.70175 10.44
ltoes 1.92048
502
root 22.825 16.536 0.320965 659.425 77.6702 660.987
lowerback 7.54695 4.19712 10.0211
upperback 1.92165 6.46944 1.63598
thorax -1.30028 3.26197 -4.37678
lowerneck -23.1532 -0.611161 0.971941
upperneck 21.3567 -1.38546 1.02212
head 10.7037 -0.383607 -0.00244293
rclavicle -6.43068e-014 -9.54166e-015
rhumerus -11.5934 12.5155 -81.5223
rradius 47.9226
rwrist -4.86575
rhand -12.9484 -32.4531
rfingers 7.12502
rthumb 13.1429 -62.0189
lclavicle -6.43068e-014 -9.54166e-015
lhumerus -47.0939 11.2376 71.6566
lradius 19.0902
lwrist -28.1755
lhand -9.02454 -25.6169
lfingers 7.12502
lthumb 16.9228 3.66581
rfemur 20.2956 -1.9807 30.2356
rtibia 7.52064
rfoot -23.8055 5.54764
rtoes 9.16779
lfemur -21.187 5.33211 -0.326893
ltibia 2.92478
lfoot -9.36744 9.99714
ltoes -0.0539531
503
root 22.9968 16.5018 0.309307 659.016 77.6008 660.739
lowerback 7.74955 4.15322 9.95603
upperback 1.91048 6.43145 1.61556
thorax -1.43504 3.23604 -4.38097
lowerneck -23.0647 -0.628647 0.994481
upperneck 21.1747 -1.44121 1.11922
head 10.6215 -0.397846 0.0203532
rclavicle -3.47873e-015 -1.27222e-014
rhumerus -11.7203 12.4797 -81.6966
rradius 48.1038
rwrist -4.87169
rhand -12.8619 -32.4749
rfingers 7.12502
rthumb 13.2263 -62.0353
lclavicle -3.47873e-015 -1.27222e-014
lhumerus -47.0632 11.0775 71.7441
lradius 19.1073
lwrist -27.8964
lhand -9.15614 -25.7883
lfingers 7.12502
lthumb 16.7961 3.50522
rfemur 20.9959 -1.29515 30.6321
rtibia 7.71276
rfoot -24.0187 4.76843
rtoes 7.69497
lfemur -21.1411 5.49724 -0.287746
ltibia 3.42785
lfoot -9.52573 9.64012
ltoes 0.575854
504
root 23.1634 16.4652 0.297734 661.357 77.1786 663.038
lowerback 7.69823 4.34316 9.80238
upperback 1.94027 6.66255 1.61662
thorax -1.3594 3.35564 -4.30151
lowerneck -23.084 -0.496949 1.34639
upperneck 21.0087 -1.28609 0.742406
head 10.5584 -0.349953 -0.149262
rclavicle 4.3186e-014 6.52014e-014
rhumerus -11.82 12.5405 -81.8408
rradius 48.3902
rwrist -5.0744
rhand -13.0021 -32.449
rfingers 7.12502
rthumb 13.0912 -62.0181
lclavicle 4.3186e-014 6.52014e-014
lhumerus -46.8043 11.6772 71.4139
lradius 18.8352
lwrist -28.5736
lhand -8.94108 -25.3961
lfingers 7.12502
lthumb 17.0032 3.87972
rfemur 21.3771 -0.287874 30.957
rtibia 8.065
rfoot -24.1963 4.33661
rtoes 6.5182
lfemur -21.1174 5.61546 0.0309856
ltibia 4.3177
lfoot -9.66117 9.9301
ltoes -3.02085
